<?xml version="1.0" encoding="UTF-8" standalone="no"?>
<!DOCTYPE svg PUBLIC "-//W3C//DTD SVG 1.1//EN" "http://www.w3.org/Graphics/SVG/1.1/DTD/svg11.dtd">
<svg version="1.1" xmlns="http://www.w3.org/2000/svg" xmlns:xlink="http://www.w3.org/1999/xlink" preserveAspectRatio="xMidYMid meet" viewBox="0 0 32 32" width="32" height="32"><defs><path d="M17.06 8.78C17.51 8.78 17.88 9.14 17.88 9.6C17.88 11.83 17.88 17.72 17.88 19.96C17.88 20.41 17.51 20.78 17.06 20.78C16.82 20.78 16.93 20.78 16.7 20.78C16.24 20.78 15.88 20.41 15.88 19.96C15.88 17.72 15.88 11.83 15.88 9.6C15.88 9.14 16.24 8.78 16.7 8.78C16.93 8.78 16.82 8.78 17.06 8.78Z" id="a2NBEZhnDA"></path><path d="M15.83 15.36L16.91 16.01L17.62 16.83L17.88 17.78L17.62 18.72L16.91 19.55L15.83 20.2L14.46 20.62L12.88 20.78L11.3 20.62L9.92 20.2L8.84 19.55L8.13 18.72L7.88 17.78L8.13 16.83L8.84 16.01L9.92 15.36L11.3 14.93L12.88 14.78L14.46 14.93L15.83 15.36ZM10.76 16.72L10.11 17.19L9.88 17.78L10.11 18.36L10.76 18.84L11.71 19.16L12.88 19.28L14.04 19.16L15 18.84L15.64 18.36L15.88 17.78L15.64 17.19L15 16.72L14.04 16.39L12.88 16.28L11.71 16.39L10.76 16.72Z" id="b7PMkeHEOv"></path><path d="M2.98 18.5C2.98 19.03 2.54 19.47 1.99 19.47C1.44 19.47 1 19.03 1 18.5C1 17.96 1.44 17.53 1.99 17.53C2.54 17.53 2.98 17.96 2.98 18.5Z" id="bFrow2Ph0"></path><path d="M31 18.5C31 19.03 30.56 19.47 30.01 19.47C29.46 19.47 29.02 19.03 29.02 18.5C29.02 17.96 29.46 17.53 30.01 17.53C30.56 17.53 31 17.96 31 18.5Z" id="a4vAIeRVRK"></path><path d="M9.93 30.03C9.93 30.56 9.49 31 8.94 31C8.39 31 7.95 30.56 7.95 30.03C7.95 29.49 8.39 29.06 8.94 29.06C9.49 29.06 9.93 29.49 9.93 30.03Z" id="d1PzNHj7oH"></path><path d="M30.01 18.5C20.02 27.07 10.68 27.07 1.99 18.5" id="kXRb9MjMh"></path><path d="" id="l9yJ5NHwf"></path><path d="M10.33 1.55L11.35 2.2L12.23 3.05L12.97 4.09L13.52 5.28L13.87 6.59L13.99 8L13.87 9.41L13.52 10.72L12.97 11.91L12.23 12.95L11.35 13.8L10.33 14.45L9.2 14.86L7.99 15L6.78 14.86L5.66 14.45L4.64 13.8L3.75 12.95L3.02 11.91L2.46 10.72L2.11 9.41L1.99 8L2.11 6.59L2.46 5.28L3.02 4.09L3.75 3.05L4.64 2.2L5.66 1.55L6.78 1.14L7.99 1L9.2 1.14L10.33 1.55ZM5.63 3.97L4.76 5.05L4.2 6.42L3.99 8L4.2 9.58L4.76 10.95L5.63 12.03L6.73 12.74L7.99 13L9.26 12.74L10.35 12.03L11.22 10.95L11.79 9.58L11.99 8L11.79 6.42L11.22 5.05L10.35 3.97L9.26 3.26L7.99 3L6.73 3.26L5.63 3.97Z" id="ebnCSdsIm"></path><path d="M20.08 24.27C20.53 28.79 16.82 30.71 8.94 30.03" id="a23I6eG25U"></path><path d="M26.77 1.55L27.79 2.2L28.68 3.05L29.41 4.09L29.96 5.28L30.31 6.59L30.43 8L30.31 9.41L29.96 10.72L29.41 11.91L28.68 12.95L27.79 13.8L26.77 14.45L25.64 14.86L24.43 15L23.22 14.86L22.1 14.45L21.08 13.8L20.19 12.95L19.46 11.91L18.91 10.72L18.56 9.41L18.43 8L18.56 6.59L18.91 5.28L19.46 4.09L20.19 3.05L21.08 2.2L22.1 1.55L23.22 1.14L24.43 1L25.64 1.14L26.77 1.55ZM22.07 3.97L21.21 5.05L20.64 6.42L20.43 8L20.64 9.58L21.21 10.95L22.07 12.03L23.17 12.74L24.43 13L25.7 12.74L26.79 12.03L27.66 10.95L28.23 9.58L28.43 8L28.23 6.42L27.66 5.05L26.79 3.97L25.7 3.26L24.43 3L23.17 3.26L22.07 3.97Z" id="b2ZWXVVwxC"></path><path d="M10.61 9.92C10.61 11.03 9.72 11.92 8.61 11.92C7.51 11.92 6.61 11.03 6.61 9.92C6.61 8.82 7.51 7.92 8.61 7.92C9.72 7.92 10.61 8.82 10.61 9.92Z" id="b2jNuNjT8"></path><path d="M26.84 9.92C26.84 11.03 25.94 11.92 24.84 11.92C23.74 11.92 22.84 11.03 22.84 9.92C22.84 8.82 23.74 7.92 24.84 7.92C25.94 7.92 26.84 8.82 26.84 9.92Z" id="d5Hv05efBq"></path></defs><g><g><g><use xlink:href="#a2NBEZhnDA" opacity="1" fill="#000000" fill-opacity="1"></use></g><g><use xlink:href="#b7PMkeHEOv" opacity="1" fill="#000000" fill-opacity="1"></use></g><g><use xlink:href="#bFrow2Ph0" opacity="1" fill="#000000" fill-opacity="1"></use></g><g><use xlink:href="#a4vAIeRVRK" opacity="1" fill="#000000" fill-opacity="1"></use></g><g><use xlink:href="#d1PzNHj7oH" opacity="1" fill="#000000" fill-opacity="1"></use></g><g><g><use xlink:href="#kXRb9MjMh" opacity="1" fill-opacity="0" stroke="#000000" stroke-width="2" stroke-opacity="1"></use></g></g><g><g><use xlink:href="#l9yJ5NHwf" opacity="1" fill-opacity="0" stroke="#000000" stroke-width="2" stroke-opacity="1"></use></g></g><g><use xlink:href="#ebnCSdsIm" opacity="1" fill="#040404" fill-opacity="1"></use></g><g><g><use xlink:href="#a23I6eG25U" opacity="1" fill-opacity="0" stroke="#090a0a" stroke-width="2" stroke-opacity="1"></use></g></g><g><use xlink:href="#b2ZWXVVwxC" opacity="1" fill="#040404" fill-opacity="1"></use></g><g><use xlink:href="#b2jNuNjT8" opacity="1" fill="#000000" fill-opacity="1"></use></g><g><use xlink:href="#d5Hv05efBq" opacity="1" fill="#000000" fill-opacity="1"></use></g></g></g></svg>